<?xml version="1.0" encoding="utf-8"?>
<!-- Generator: Adobe Illustrator 23.0.2, SVG Export Plug-In . SVG Version: 6.00 Build 0)  -->
<svg version="1.1" id="Capa_1" xmlns="http://www.w3.org/2000/svg" xmlns:xlink="http://www.w3.org/1999/xlink" x="0px" y="0px"
	 viewBox="0 0 1200 619" style="enable-background:new 0 0 1200 619;" xml:space="preserve">
<style type="text/css">
	.st0{fill:transparent;
			-webkit-animation: azul 3s forwards 7s;
			-moz-animation: azul 3s forwards 7s;
			-o-animation: azul 3s forwards 7s;
			animation: azul 3s forwards 7s;
	}
	.st1{fill:Transparent;
			-webkit-animation: rojo 5s forwards 5s;
			-moz-animation: rojo 5s forwards 5s;
			-o-animation: rojo 5s forwards 5s;
			animation: rojo 5s forwards 5s;
	}
	.st2{fill:none;
	stroke:#003E8D;
	stroke-width:2;
	stroke-dasharray: 1050;
	stroke-dashoffset: 0;
	stroke-miterlimit:10;
	-webkit-animation: animacion 10s forwards;
		-moz-animation: animacion 10s forwards;
		-o-animation: animacion 10s forwards;
		animation: animacion 10s forwards;
	}
	@-webkit-keyframes animacion {
			0% {
				stroke-dashoffset: 1050;
			}
			90% {
				stroke: #003E8D;
			}

			100% {
				stroke-dashoffset: 0;
				stroke: transparent;
			}
		}

		@-keyframes animacion {
			0% {
				stroke-dashoffset: 1050;
			}
			90% {
				stroke: #003E8D;
			}

			100% {
				stroke-dashoffset: 0;
				stroke: transparent;
			}
		}
		@-webkit-keyframes azul {
			from {
				fill: transparent;
			}

			to {
				fill: #003E8D;
			}
		}

		@-keyframes azul {
			from {
				fill: transparent;
			}

			to {
				fill: #003E8D;
			}
		}
		@-webkit-keyframes rojo {
			from {
				fill: transparent;
			}

			to {
				fill: #FF0000;
			}
		}

		@-keyframes rojo {
			from {
				fill: transparent;
			}

			to {
				fill: #FF0000;
			}
		}
</style>
<path id="tubienestar" class="st0" d="M286.8,510.8c0,0.6-0.5,0.8-1.5,0.7c-1-0.1-2-0.5-3.2-1.1c-1.2-0.6-2.2-1.4-3.2-2.3
	c-1-1-1.5-2-1.5-3.1c0-0.7,0.2-1.6,0.6-2.7c0.4-1.1,1-2.4,1.7-3.7c0.7-1.4,1.6-2.9,2.5-4.5c0.9-1.6,1.9-3.3,3-5
	c1.2-2,2.4-4.1,3.6-6.2c1.2-2.1,2.3-4,3.2-6c1-1.9,1.7-3.7,2.3-5.3c0.6-1.6,0.9-2.9,0.9-4c0-0.6,0.4-0.8,1.3-0.7
	c0.8,0.1,1.7,0.5,2.7,1.1c1,0.6,1.9,1.4,2.7,2.4c0.8,1,1.3,2,1.3,3.1c0,0.8-0.2,1.8-0.6,3.1c-0.4,1.2-1,2.6-1.7,4
	c-0.7,1.5-1.5,3-2.4,4.7c-0.9,1.7-1.9,3.4-2.9,5.2c-1.1,1.9-2.2,3.8-3.2,5.8c-1.1,2-2,3.8-2.9,5.6c-0.8,1.8-1.5,3.4-2,5
	C287.1,508.4,286.8,509.7,286.8,510.8z M304.5,466.2c-0.8,0-1.5-0.2-2.2-0.5c-0.7-0.3-1.4-0.7-1.9-1.3c-0.6-0.5-1-1.1-1.4-1.7
	c-0.3-0.6-0.5-1.2-0.5-1.9c0-0.6,0.2-1.2,0.5-1.9s0.8-1.5,1.3-2.3c0.5-0.8,1-1.6,1.4-2.5c0.4-0.8,0.6-1.6,0.6-2.2
	c0-0.9,0.5-1.3,1.4-1.3c0.9,0,1.9,0.2,3,0.7c1.1,0.5,2.1,1.1,3,1.8c0.9,0.7,1.4,1.5,1.4,2.1c0,0.8-0.2,1.8-0.7,3.1
	c-0.5,1.2-1.1,2.4-1.8,3.6c-0.7,1.2-1.4,2.2-2.1,3C305.5,465.8,304.9,466.2,304.5,466.2z M408.4,437.1c6.2,0,11.3,0.6,15.4,1.7
	c4.1,1.1,7.3,2.5,9.8,4.1c2.4,1.6,4.2,3.3,5.2,5.1s1.5,3.3,1.5,4.6c0,1.2-0.4,2.3-1.2,3.2c-0.8,0.9-1.8,1.4-3.1,1.4
	c-0.9,0-1.6-0.1-2-0.4c-0.4-0.2-0.7-0.6-0.8-1c-0.1-0.4-0.1-0.9,0-1.4c0.1-0.5,0.2-1,0.3-1.5c0.1-0.3,0.1-0.5,0.1-0.7
	c0-0.7-0.3-1.5-0.8-2.3c-0.6-0.8-1.4-1.5-2.5-2.2c-1.1-0.7-2.5-1.2-4.1-1.7c-1.6-0.4-3.5-0.6-5.5-0.6c-8.5,0-16.5,0.6-24.1,1.8
	c-7.6,1.2-14.6,2.8-21.1,4.6c-6.5,1.8-12.4,3.8-17.8,5.9c-5.4,2.1-10.1,4-14.1,5.8c-0.8,0.4-1.4,0.6-1.8,0.8
	c-0.4,0.2-0.7,0.3-0.9,0.4c-0.2,0.1-0.5,0.2-0.8,0.3c-0.3,0.1-0.8,0.3-1.4,0.6c3.7,0.7,7,1.9,10,3.4c2.9,1.5,5.1,3.4,6.6,5.6
	c1-1.9,1.9-3.6,2.8-5.3c0.9-1.7,1.6-3.1,2.3-4.5c0.6-1.3,1.1-2.4,1.5-3.3c0.4-0.9,0.6-1.5,0.6-1.8c0-0.9,0.5-1.2,1.4-1.1
	c0.9,0.1,1.9,0.5,3,1.2c1.1,0.7,2.1,1.5,3,2.5c0.9,1,1.4,2,1.4,2.9c0,1-0.3,2.4-0.9,4c-0.6,1.7-1.4,3.5-2.3,5.5
	c-1,2-2.1,4.2-3.3,6.5c-1.2,2.3-2.5,4.6-3.8,7c-1.3,2.4-2.6,4.8-3.8,7.1c-1.2,2.3-2.3,4.5-3.3,6.6c-1,2-1.8,3.9-2.4,5.5
	c-0.6,1.6-0.9,2.9-0.9,3.8c0,1.7,0.1,3.2,0.3,4.5c0.2,1.2,0.4,2.3,0.6,3.2l-0.1-0.1c0.2,0.8,0.3,1.5,0.4,2.1c0.1,0.6,0.1,1.1,0,1.5
	c-0.1,0.4-0.4,0.7-0.8,0.8c-0.4,0.2-1,0.2-1.8,0.2c-0.9,0-1.8-0.3-3-1c-1.1-0.7-2.2-1.6-3.1-2.8c-1-1.2-1.8-2.6-2.4-4.3
	c-0.7-1.7-1-3.6-1-5.7c0-1.2,0.3-2.8,1-4.8c0.7-2,1.5-4.2,2.6-6.7s2.3-5.1,3.7-7.9c1.4-2.7,2.8-5.5,4.2-8.2c0.1-0.4,0.2-0.7,0.3-1
	c0.1-0.3,0.1-0.6,0.1-0.9c0-1.1-0.4-2.2-1.2-3.2c-0.8-1-1.8-1.9-3.1-2.8s-2.8-1.6-4.5-2.2s-3.5-1.2-5.3-1.7c-1.8-0.5-3.7-0.8-5.5-1
	c-1.8-0.2-3.6-0.3-5.2-0.3c-1.1,0-2.2-0.2-3.2-0.7c-1-0.5-2-1.1-2.8-1.8c-0.8-0.7-1.5-1.5-2-2.3c-0.5-0.8-0.7-1.6-0.7-2.3
	c0-1,0.4-1.8,1.1-2.4c0.7-0.7,1.9-1,3.6-1c0.6,0,2.1-0.4,4.3-1.1c2.2-0.7,5-1.7,8.4-3c2.9-1,6.1-2.2,9.7-3.5
	c3.6-1.3,7.3-2.6,11.4-3.9c4-1.3,8.2-2.6,12.5-3.8c4.4-1.2,8.7-2.3,13.2-3.2c4.4-1,8.9-1.7,13.3-2.3
	C400,437.4,404.3,437.1,408.4,437.1z M411.7,482c0.5-0.8,1-1.3,1.6-1.6c0.6-0.2,1.2-0.3,1.7-0.1c0.5,0.2,0.8,0.6,1.1,1.2
	c0.2,0.6,0.2,1.3-0.2,2.2l-0.6,1.4c-0.6,1.2-1.3,2.8-2.2,4.6c-0.9,1.8-1.9,3.8-3,5.8c-1.1,2.1-2.4,4.1-3.7,6.2
	c-1.3,2.1-2.7,3.9-4.1,5.6c-1.4,1.7-2.8,3-4.3,4c-1.5,1-2.9,1.5-4.4,1.5c-1,0-1.9-0.3-2.8-0.9c-0.9-0.6-1.7-1.3-2.4-2.3
	c-0.7-0.9-1.3-1.9-1.7-3c-0.5-1.1-0.7-2.1-0.7-3c0-0.8,0.1-1.7,0.4-2.9c-1.2,1.6-2.4,3.1-3.6,4.6c-1.2,1.5-2.4,2.7-3.5,3.9
	c-1.1,1.1-2.2,2-3.1,2.7c-1,0.7-1.8,1-2.5,1c-1,0-2-0.3-3-1c-1-0.7-1.8-1.5-2.5-2.4c-0.7-1-1.3-2-1.7-3.1c-0.4-1.1-0.6-2.1-0.6-2.9
	c0-1.2,0.2-2.5,0.5-3.9c0.4-1.4,0.9-2.8,1.5-4.2c0.6-1.5,1.3-2.9,2-4.4c0.7-1.5,1.5-2.9,2.2-4.4c0.6-1.2,1.2-2.3,1.8-3.5
	c0.6-1.2,1.1-2.3,1.6-3.3c0.5-1,0.8-2,1.1-2.9s0.4-1.7,0.4-2.3c0-0.7,0.5-1.1,1.5-1.2c1,0,2.1,0.2,3.3,0.7c1.2,0.5,2.3,1.3,3.3,2.3
	c1,1,1.5,2.2,1.5,3.5c0,0.5-0.2,1.3-0.5,2.2s-0.8,2-1.3,3.3c-0.5,1.2-1.2,2.5-1.9,3.9c-0.7,1.4-1.5,2.9-2.2,4.4
	c-0.9,1.8-1.8,3.5-2.7,5.2c-0.9,1.7-1.7,3.3-2.4,4.6c-0.7,1.4-1.2,2.5-1.6,3.3c-0.4,0.8-0.5,1.3-0.3,1.3c0.3,0,0.8-0.4,1.5-1.1
	c0.7-0.7,1.6-1.7,2.6-2.9c1-1.2,2.1-2.6,3.3-4.1c1.2-1.6,2.4-3.2,3.6-4.8c2.8-3.8,5.9-8.1,9.3-13c0.9-1.9,1.6-3.6,2.2-5
	c0.6-1.4,1-2.3,1-2.7c0-0.7,0.5-1.1,1.4-1c0.9,0.1,1.9,0.4,3,1c1.1,0.6,2.1,1.4,3,2.3c0.9,1,1.4,1.9,1.4,2.9c0,0.6-0.4,1.8-1.1,3.4
	c-0.7,1.7-1.6,3.6-2.7,5.7c-0.8,1.6-1.6,3.3-2.4,5s-1.6,3.4-2.2,5c-0.7,1.6-1.2,3.1-1.7,4.5c-0.5,1.4-0.7,2.5-0.7,3.3
	c0,0.4,0,0.5,0.1,0.5c0.8,0,1.6-0.5,2.5-1.4c0.9-0.9,1.9-2.1,2.9-3.5s2.1-3,3.1-4.8c1-1.8,2-3.5,2.9-5.3c0.9-1.8,1.7-3.4,2.5-5
	c0.7-1.6,1.4-2.8,1.9-3.8L411.7,482L411.7,482z M715.7,468.8c1.4,0,2.7-0.2,3.9-0.7c1.2-0.5,2.2-1,3.1-1.7c0.9-0.7,1.5-1.5,2-2.3
	c0.5-0.9,0.7-1.7,0.7-2.5c0-0.9-0.2-1.7-0.5-2.4c-0.4-0.7-0.8-1.3-1.5-1.8c-0.6-0.5-1.3-0.8-2.1-1.1c-0.8-0.2-1.6-0.4-2.5-0.4
	c-0.7,0-1.3,0.3-2,1c-0.7,0.7-1.2,1.5-1.8,2.5c-0.5,1-0.9,2.1-1.3,3.2c-0.3,1.1-0.5,2.1-0.5,3c0,1,0.2,1.7,0.6,2.3
	S714.9,468.8,715.7,468.8z M947.9,482.6c-0.3-0.3-0.8-0.6-1.3-0.8c-0.5-0.2-1-0.3-1.5-0.3c-0.5,0-0.8,0.2-1,0.5v0.1
	c-0.4,0.9-0.9,2.1-1.7,3.7c-0.8,1.6-1.7,3.4-2.8,5.3c-1,1.9-2.1,3.9-3.3,5.8c-1.2,2-2.3,3.8-3.4,5.4c-1.1,1.6-2.2,3-3.2,4
	c-1,1-1.8,1.6-2.5,1.6c-0.2,0-0.3-0.2-0.3-0.7c0-0.6,0.1-1.3,0.4-2.2c0.2-0.9,0.6-1.8,0.9-2.7c0.4-1,0.8-1.9,1.2-3
	c0.5-1,0.9-2,1.3-2.9c0.6-1.3,1.2-2.5,1.6-3.6c0.5-1.1,0.7-1.9,0.7-2.4c0-0.9-0.2-1.5-0.7-1.9c-0.5-0.4-1.1-0.8-1.9-1.3
	c-0.4-0.2-0.7-0.5-1.2-0.7c-0.4-0.3-0.8-0.6-1.1-1c-0.3-0.4-0.6-0.9-0.8-1.4c-0.2-0.6-0.3-1.2-0.3-2c0-1,0.3-2.1,0.8-3.3
	s1.1-2.3,1.7-3.3c0.5-1,1-1.8,1.4-2.6c0.4-0.8,0.6-1.6,0.6-2.3c0-0.8-0.3-1.5-0.9-2.1c-0.6-0.6-1.3-1-2.1-1.4
	c-0.8-0.3-1.7-0.6-2.7-0.7s-1.8-0.2-2.4-0.2c-0.8,0-1.5,0.4-2.2,1.1c-0.7,0.7-1.4,1.6-2,2.8c-0.6,1.2-1.1,2.5-1.4,3.9
	c-0.4,1.5-0.5,2.9-0.5,4.4c0,0.8,0.1,1.5,0.2,2.2c0.1,0.7,0.3,1.2,0.5,1.7c-0.3,0.7-0.8,1.6-1.4,2.7c-0.8,1.5-1.7,3.2-2.7,5.1
	c-1,1.9-2.1,3.8-3.3,5.8c-1.2,2-2.3,3.8-3.4,5.5c-1.1,1.7-2.2,3-3.2,4.1c-1,1.1-1.8,1.6-2.4,1.6c0,0,0.1-0.1,0.1-0.3
	c0-0.6,0.1-1.3,0.4-2.2c0.2-0.9,0.6-1.9,1-2.9c0.4-1,0.8-2.1,1.3-3.2s0.9-2.1,1.4-3.1c0.6-1.5,1.2-2.7,1.7-3.9
	c0.5-1.1,0.7-1.9,0.7-2.4c0-0.4-0.2-0.8-0.7-1.3c-0.5-0.5-1-0.9-1.7-1.4c-0.7-0.4-1.4-0.8-2.2-1.2c-0.8-0.3-1.6-0.6-2.2-0.8
	c-0.7-0.2-1.2-0.2-1.7-0.1c-0.5,0.1-0.7,0.3-0.7,0.7c0,0.4-0.2,1.2-0.6,2.5s-1,2.7-1.7,4.4c-0.7,1.7-1.6,3.4-2.5,5.3
	c-1,1.9-2,3.6-3.1,5.1c-1.1,1.5-2.3,2.8-3.4,3.8s-2.3,1.5-3.5,1.5c-1,0-1.4-0.8-1.4-2.4c0-1.3,0.3-2.9,0.8-4.7s1.2-3.7,2-5.7
	c0.8-2,1.8-3.9,3-5.8s2.3-3.6,3.5-5.2c1.2-1.5,2.5-2.8,3.7-3.7c1.2-1,2.4-1.4,3.5-1.4c1,0,1.8,0.2,2.4,0.5c0.6,0.3,1,0.7,1.2,1.2
	c0.2,0.4,0.4,0.8,0.4,1.3c0,0.4,0,0.7,0,0.7c0,0.1,0.1,0.3,0.4,0.6c0.3,0.2,0.7,0.5,1.2,0.6c0.4,0.2,0.9,0.2,1.3,0.3
	c0.4,0,0.7-0.1,0.8-0.5h-0.1c0.1-0.3,0.2-0.7,0.3-1.4c0-0.7,0-1.4-0.2-2.3c-0.2-0.8-0.4-1.7-0.8-2.6c-0.4-0.9-1-1.7-1.8-2.5
	c-0.8-0.7-1.8-1.4-3-1.8c-1.2-0.5-2.7-0.7-4.4-0.7c-2,0-4,0.4-6,1.2c-2,0.8-3.9,1.9-5.7,3.3c-1.8,1.4-3.5,3-5.1,4.8s-3,3.8-4.1,5.8
	c-0.9,1.5-1.6,3.1-2.2,4.7c-1,1.4-2,2.9-3.1,4.4c-1.5,2-3,3.8-4.5,5.4s-3,3-4.5,4c-1.5,1-2.8,1.6-4.1,1.6c-0.7,0-1-0.5-1-1.6
	c0-1.2,0.3-2.8,0.9-4.8c0.6-1.9,1.4-4.1,2.4-6.5c1-2.4,2.1-4.9,3.3-7.5c1.2-2.7,2.4-5.3,3.7-7.9c0.5-0.9,0.9-1.8,1.3-2.7
	c0.4-0.9,0.9-1.8,1.3-2.7c3.4,0,6.3-0.2,8.7-0.7c2.4-0.5,4.5-1.1,6-1.7c1.6-0.7,2.7-1.3,3.5-2s1.1-1.2,1.1-1.6
	c0-0.9-0.4-1.3-1.2-1.4c-0.8-0.1-2,0.1-3.4,0.4l0.1-0.1c-1.3,0.4-3,0.7-5.1,1.1c-2.1,0.4-4.5,0.6-7.2,0.7c1-2.3,1.9-4.4,2.5-6.2
	c0.6-1.8,0.9-3.2,0.9-4.2c0-1-0.5-1.9-1.4-2.9c-0.9-1-1.9-1.7-3-2.3c-1.1-0.6-2.1-0.9-3-1c-0.9-0.1-1.4,0.2-1.4,1
	c0,1.1-0.5,3.1-1.6,5.8c-1.1,2.7-2.4,5.9-4,9.4c-2.2-0.2-4.1-0.5-5.8-0.8s-3-0.6-4-0.8c-0.9-0.2-1.7-0.3-2.3-0.5
	c-0.6-0.1-1.2-0.2-1.6-0.1c-0.4,0.1-0.7,0.2-0.9,0.5c-0.2,0.3-0.3,0.8-0.3,1.4c0,0.3,0.3,0.6,0.8,1.1c0.6,0.5,1.4,1,2.4,1.5
	c1.1,0.5,2.4,1,3.9,1.5c1.6,0.5,3.3,0.9,5.3,1.2l-1.4,3.1c-1.3,2.7-2.5,5.4-3.8,8.1c-0.3,0.7-0.6,1.4-1,2.1
	c-0.1,0.2-0.2,0.3-0.3,0.5c-0.7,1.3-1.4,2.6-2.2,4.1s-1.8,3-2.9,4.6c-1.1,1.6-2.2,3-3.5,4.5c0-0.4,0-0.8,0-1.2c0-0.5,0-0.9,0-1.2
	c0-1.9-0.3-3.5-0.8-4.9c-0.6-1.4-1.2-2.8-2-4.1v0.1c-0.6-1.3-1.2-2.5-1.8-3.8c-0.6-1.3-0.9-2.7-0.9-4.3c0-1.4,0.4-2.5,1.1-3.5
	c0.7-1,1.4-1.8,2.1-2.4c0.6-0.6,1.2-1.3,1.6-1.9c0.5-0.6,0.7-1.3,0.7-2.1c0-0.9-0.2-1.6-0.7-2.2c-0.5-0.5-1.1-1-1.7-1.3
	c-0.7-0.3-1.4-0.5-2.1-0.6c-0.7-0.1-1.3-0.1-1.8-0.1c-0.9,0-1.9,0.3-3.1,1s-2.3,1.5-3.4,2.7c-1.1,1.2-2,2.6-2.8,4.2
	c-0.7,1.7-1.1,3.5-1.1,5.5c0,0.6,0.1,1.4,0.2,2.2l-0.5,1.2l0.1-0.1c-0.2,0.4-0.4,0.8-0.5,1.3c-0.2,0.4-0.4,0.9-0.7,1.5
	c-0.3,0.5-0.6,1.2-1,1.9c-0.3,0.5-0.6,1.1-1,1.7c-0.2,0.3-0.4,0.7-0.7,1c-1.2,1.8-2.6,3.7-4.2,5.6c-1.6,1.9-3.2,3.7-5,5.3
	c-1.8,1.6-3.6,2.9-5.6,3.9c-1.9,1-3.9,1.5-5.9,1.5c-0.9,0-1.5-0.3-1.8-1c-0.4-0.7-0.5-1.5-0.5-2.5c0-0.9,0.1-1.7,0.3-2.6
	c1.5-0.3,3-0.9,4.6-1.9c1.6-0.9,3.1-2.1,4.7-3.4c1.5-1.3,3-2.8,4.3-4.4c1.4-1.6,2.6-3.2,3.6-4.8c1-1.6,1.9-3.2,2.5-4.7
	c0.6-1.5,0.9-2.9,0.9-4c0-1.6-0.5-2.9-1.4-3.8c-0.9-1-2.5-1.4-4.6-1.4c-3.3,0-6.5,0.8-9.6,2.3c-3.2,1.5-6,3.5-8.5,6
	s-4.5,5.2-6.1,8.3c-1.2,2.5-2,5-2.2,7.5c-0.2,0.3-0.3,0.5-0.4,0.8c-1.1,1.9-2.3,3.6-3.4,5.1c-1.1,1.5-2.1,2.8-3.1,3.7
	s-1.8,1.4-2.4,1.4c-0.1,0-0.1-0.2-0.1-0.5c0-0.8,0.2-1.9,0.7-3.3c0.5-1.4,1-2.9,1.7-4.5s1.4-3.3,2.3-5c0.8-1.7,1.6-3.4,2.4-5
	c1-2.2,1.9-4.1,2.7-5.7c0.7-1.7,1.1-2.8,1.1-3.4c0-0.8-0.2-1.6-0.6-2.4c-0.4-0.8-0.9-1.5-1.5-2.2c-0.6-0.7-1.2-1.2-1.9-1.7
	c-0.7-0.5-1.3-0.8-1.8-1c-0.2-0.1-0.4-0.1-0.5-0.1c-0.2,0-0.3,0-0.4,0c-0.4,0-1.1,0.4-2,1.2c-0.9,0.8-2,1.8-3.2,3
	c-1.2,1.2-2.5,2.7-3.9,4.2s-2.8,3.2-4.2,4.9c0.5-1.2,1-2.2,1.3-3.2c0.3-1,0.5-1.7,0.5-2.4c0-1.4-0.5-2.5-1.5-3.6
	c-1-1-2.1-1.8-3.3-2.3s-2.3-0.8-3.3-0.7c-1,0-1.5,0.4-1.5,1.2c0,1.4-0.5,3.1-1.5,5.3s-2.1,4.5-3.4,7c0,0.1-0.1,0.2-0.1,0.3
	c-0.6,1-1.3,2.1-2.1,3.3c-1.2,1.8-2.6,3.7-4.2,5.6c-1.6,1.9-3.2,3.7-5,5.3c-1.8,1.6-3.6,2.9-5.6,3.9c-1.9,1-3.9,1.5-5.9,1.5
	c-0.9,0-1.5-0.3-1.8-1s-0.5-1.5-0.5-2.5c0-0.9,0.1-1.7,0.3-2.6c1.5-0.3,3-0.9,4.6-1.9c1.6-0.9,3.1-2.1,4.7-3.4
	c1.5-1.3,3-2.8,4.3-4.4c1.4-1.6,2.6-3.2,3.6-4.8c1-1.6,1.9-3.2,2.5-4.7c0.6-1.5,0.9-2.9,0.9-4c0-1.6-0.5-2.9-1.4-3.8
	c-0.9-1-2.5-1.4-4.6-1.4c-3.3,0-6.5,0.8-9.6,2.3c-3.2,1.5-6,3.5-8.5,6s-4.5,5.2-6.1,8.3c-0.9,1.8-1.5,3.6-1.9,5.4
	c-0.4,0.7-0.9,1.3-1.3,2c-1.3,2-2.6,3.8-4,5.4c-1.3,1.6-2.6,3-3.9,4c-1.2,1.1-2.4,1.6-3.4,1.6c-0.1,0-0.2-0.2-0.2-0.6
	c0-0.8,0.2-1.8,0.7-3.2c0.5-1.4,1-2.9,1.7-4.5c0.7-1.6,1.5-3.3,2.3-5.1c0.8-1.8,1.6-3.4,2.3-5c0.5-1,0.9-1.9,1.4-2.9
	s0.9-1.9,1.2-2.7c0.4-0.8,0.7-1.6,0.9-2.2c0.2-0.6,0.3-1.1,0.3-1.4c0-1-0.5-2-1.4-2.9s-1.9-1.7-3-2.3c-1.1-0.6-2.1-0.9-3-1
	c-0.9-0.1-1.4,0.3-1.4,1c0,0.5-0.4,1.6-1.2,3.3s-1.7,3.7-2.8,6.1c-0.4,0.8-0.8,1.7-1.2,2.6c-0.8,1.1-1.7,2.3-2.8,3.6
	c-1.5,1.8-3.2,3.6-5.2,5.5c-2,1.9-4.1,3.7-6.5,5.4c2.5-2.9,4.4-5.8,5.7-8.8c1.3-3,1.9-6.1,1.9-9.2c0-1-0.1-2.1-0.2-3.4
	c-0.1-1.2-0.5-2.4-1-3.5c-0.5-1.1-1.3-2.1-2.3-2.8c-1-0.8-2.4-1.2-4.2-1.2c-1.1,0-2.2,0.2-3.4,0.6c-1.2,0.4-2.3,1-3.5,1.7
	c-1.2,0.7-2.3,1.5-3.4,2.3c-1.1,0.9-2.2,1.7-3.2,2.6c0.1-0.1,0.4-0.7,0.8-1.7c0.5-1,1-2.3,1.7-3.8c0.7-1.5,1.4-3.1,2.1-4.9
	s1.4-3.5,2.1-5.1c0.6-1.7,1.2-3.2,1.6-4.5c0.4-1.4,0.6-2.4,0.6-3.1c0-0.8-0.2-1.6-0.7-2.4s-1.1-1.5-1.8-2.1
	c-0.7-0.6-1.5-1.1-2.3-1.5c-0.8-0.4-1.5-0.6-2.2-0.6c-0.8,0-1.4,0.2-1.9,0.6c-0.5,0.4-0.7,1.1-0.7,2.1c0,0.6-0.2,1.7-0.7,3.1
	c-0.5,1.4-1.2,3.1-2,5c-0.8,1.9-1.8,4-2.8,6.3c-1.1,2.3-2.2,4.6-3.3,7c-1.3,2.7-2.5,5.4-3.8,8.2c-1.2,2.7-2.4,5.3-3.3,7.6
	c-1,2.4-1.8,4.5-2.4,6.3c-0.6,1.8-0.9,3.2-0.9,4.2c0,4.2,1,7.4,3,9.7c2,2.3,5.2,3.4,9.7,3.4c3.9,0,7.6-0.6,11-1.8s6.7-2.7,9.7-4.6
	c3-1.9,5.7-3.9,8.1-6.2c0.3-0.3,0.7-0.6,1-1c0,0.2-0.1,0.3-0.2,0.5c-0.5,1.5-0.7,2.8-0.7,3.8c0,2.8,0.7,5,2.1,6.7
	c1.4,1.7,3.3,2.5,5.5,2.5c1.7,0,3.5-0.6,5.3-1.8c1.8-1.2,3.5-2.7,5.2-4.5c1.3-1.4,2.6-2.9,3.8-4.6c0.1,0.4,0.2,0.7,0.3,1.1
	c0.5,1.7,1.3,3.3,2.4,4.8c1.1,1.5,2.4,2.7,4.1,3.6c1.6,1,3.6,1.4,5.8,1.4c2.7,0,5.2-0.6,7.7-1.8s4.7-2.7,6.9-4.6
	c1.1-0.9,2.1-1.9,3.1-3c0,0.1,0,0.2,0,0.3c0,1.4,0.2,2.6,0.7,3.7c0.5,1.1,1.1,2,1.9,2.8c0.7,0.8,1.6,1.4,2.5,1.8
	c0.9,0.4,1.8,0.6,2.7,0.6c0.7,0,1.3-0.1,1.6-0.3c0.4-0.2,0.6-0.5,0.7-0.8c0.1-0.3,0.1-0.7,0-1.2c-0.1-0.5-0.2-1-0.3-1.5v0.1
	c0-0.1-0.1-0.3-0.1-0.5c0-0.2,0-0.3-0.1-0.5l-0.1-0.5c0-0.1,0-0.2,0-0.4c0-0.2,0.1-0.4,0.1-0.6c0.5-1.1,1.4-2.5,2.5-4.2
	c1.1-1.7,2.4-3.5,3.9-5.4c1.5-1.9,3-3.9,4.7-5.9c1.7-2,3.2-3.9,4.7-5.6c-0.8,1.7-1.6,3.4-2.3,5.2c-0.8,1.8-1.5,3.5-2.1,5.1
	c-0.6,1.6-1.1,3.1-1.5,4.5c-0.4,1.4-0.6,2.5-0.6,3.5c0,2.8,0.7,5,2.2,6.7c1.5,1.7,3.3,2.5,5.5,2.5c1.5,0,3-0.6,4.5-1.8
	c1.6-1.2,3.1-2.7,4.6-4.6c0.9-1.1,1.7-2.2,2.5-3.4c0.5,1.7,1.3,3.2,2.4,4.7c1.1,1.5,2.4,2.7,4.1,3.6s3.6,1.4,5.8,1.4
	c2.7,0,5.2-0.6,7.7-1.8c2.4-1.2,4.7-2.7,6.9-4.6c2.1-1.9,4.1-3.9,5.8-6.2c1.8-2.3,3.3-4.5,4.7-6.6c1.2-1.9,2.2-3.6,3.1-5.2l0.9,1.6
	l-0.1-0.1c0.6,1.2,1.2,2.3,1.8,3.5s0.8,2.4,0.8,3.7c0,1.4-0.2,2.7-0.7,3.9c-0.5,1.2-1,2.3-1.7,3.2c-0.7,0.9-1.4,1.6-2.2,2.1
	c-0.8,0.5-1.6,0.8-2.3,0.8c-0.6,0-1.1-0.1-1.4-0.2c-0.4-0.2-0.7-0.4-0.9-0.6c-0.2-0.2-0.4-0.5-0.5-0.8s-0.2-0.5-0.3-0.8
	c-0.2-0.6-0.5-1.1-0.7-1.5c-0.2-0.4-0.7-0.6-1.5-0.6c-0.4,0-0.6,0.5-0.7,1.6c-0.1,1,0.1,2.2,0.5,3.5c0.5,1.3,1.3,2.4,2.4,3.5
	c1.2,1,2.9,1.6,5,1.6h0.4c1.3,0,2.7-0.2,4.3-0.5c2.4-0.7,4.6-1.8,6.7-3.3c2.1-1.5,4-3.1,5.8-4.9c0.6-0.6,1.2-1.3,1.8-2
	c0,0,0,0.1,0,0.1c0,1.7,0.3,3.2,1,4.6c0.6,1.3,1.4,2.4,2.4,3.3c1,0.9,2,1.6,3,2.1c1.1,0.5,2,0.7,2.8,0.7c2,0,4-0.6,6-1.8
	c2-1.2,4-2.7,5.9-4.6c1.6-1.5,3.1-3.2,4.5-5c0.1,0.9,0.3,1.8,0.6,2.7c0.5,1.6,1.2,3,2.1,4.3s2,2.3,3.4,3.1c1.3,0.8,2.9,1.2,4.7,1.2
	c0.9,0,1.8-0.2,2.7-0.6c0.9-0.4,1.8-1,2.6-1.6c0.8-0.6,1.6-1.3,2.3-2c0.7-0.7,1.4-1.4,1.9-2c0.5,1.2,1.2,2.3,2,3.2
	c0.7,0.8,1.5,1.5,2.5,2.1c1,0.7,2.1,1,3.4,1c1.2,0,2.5-0.6,3.9-1.8s2.8-2.7,4.3-4.6c1.5-1.9,2.9-3.9,4.4-6.2c1.4-2.3,2.8-4.5,4-6.7
	c0.3-0.5,0.6-1.1,0.9-1.6c0.7-1.2,1.2-2.1,1.6-2.8c0.4-0.8,0.8-1.6,1.2-2.3c0.4,0.4,0.8,0.7,1.2,1c0.4,0.3,0.8,0.5,1.1,0.7
	c-1,2.1-1.9,4.1-2.7,6.1c-0.6,1.7-1.2,3.4-1.8,5.3s-0.8,3.4-0.8,4.7c0,1,0.2,2.1,0.6,3.1c0.4,1,1,1.9,1.7,2.7
	c0.7,0.8,1.6,1.4,2.7,1.9c1,0.5,2.2,0.7,3.5,0.7c1.3,0,2.7-0.6,4.2-1.8c1.5-1.2,3-2.7,4.5-4.6c1.5-1.9,2.9-3.9,4.3-6.2
	c1.4-2.3,2.7-4.5,3.9-6.6c1.2-2.2,2.2-4.1,3.1-5.9s1.5-3.1,1.9-4C948.3,483.3,948.2,483,947.9,482.6z M804.2,488.4
	c1.1-2.1,2.3-4,3.5-5.7c1.2-1.7,2.5-3.1,3.8-4.1c1.3-1.1,2.5-1.6,3.6-1.6c0.2,0,0.3,0.1,0.3,0.4c0,1-0.4,2.3-1.3,3.9
	c-0.8,1.6-1.9,3.3-3.3,5c-1.4,1.7-2.9,3.4-4.6,4.9c-1.7,1.5-3.3,2.7-5,3.5C802.2,492.6,803.1,490.5,804.2,488.4z M736.1,488.4
	c1.1-2.1,2.3-4,3.5-5.7c1.2-1.7,2.5-3.1,3.8-4.1c1.3-1.1,2.5-1.6,3.6-1.6c0.2,0,0.3,0.1,0.3,0.4c0,1-0.4,2.3-1.3,3.9
	c-0.8,1.6-1.9,3.3-3.3,5c-1.4,1.7-2.9,3.4-4.6,4.9c-1.7,1.5-3.3,2.7-5,3.5C734.1,492.6,735,490.5,736.1,488.4z M685.9,485.1
	c-0.5,2-1.3,3.9-2.1,6s-1.9,4-3.1,5.9c-1.2,1.9-2.4,3.6-3.7,5.1s-2.5,2.7-3.8,3.6c-1.3,0.9-2.4,1.4-3.5,1.4c-0.6,0-1.2-0.2-1.6-0.5
	c-0.4-0.4-0.8-0.8-1.1-1.4c-0.3-0.5-0.5-1.1-0.6-1.8c-0.1-0.7-0.2-1.3-0.2-1.9c0-1.2,0.4-2.6,1.1-4.1s1.7-3.2,2.9-4.9
	c1.2-1.7,2.5-3.3,4-5c1.5-1.6,2.9-3.1,4.4-4.4c1.5-1.3,2.9-2.3,4.2-3.1s2.4-1.2,3.3-1.2c0.4,0,0.5,0.4,0.5,1.1
	C686.7,481.4,686.4,483.2,685.9,485.1z M971.3,495.8c0.8,0,1.5,0.2,2.2,0.5c0.7,0.3,1.4,0.8,1.9,1.3c0.6,0.5,1,1.1,1.4,1.7
	c0.3,0.7,0.5,1.3,0.5,1.9c0,0.6-0.2,1.2-0.5,1.9c-0.3,0.7-0.8,1.4-1.3,2.2c-0.5,0.8-1,1.6-1.4,2.5c-0.4,0.8-0.6,1.6-0.6,2.2
	c0,0.9-0.5,1.3-1.4,1.3c-0.9,0-1.9-0.2-3-0.6c-1.1-0.5-2.1-1.1-3-1.8c-0.9-0.8-1.4-1.5-1.4-2.2c0-0.8,0.2-1.8,0.7-3
	c0.5-1.2,1.1-2.4,1.8-3.6c0.7-1.2,1.4-2.2,2.1-3C970.2,496.2,970.8,495.8,971.3,495.8z M989,451.3c0-0.6,0.5-0.8,1.5-0.7
	c1,0.1,2.1,0.5,3.2,1.1c1.2,0.6,2.3,1.4,3.2,2.3c1,1,1.5,2,1.5,3.1c0,0.7-0.2,1.6-0.6,2.7c-0.4,1.1-1,2.4-1.8,3.7
	c-0.7,1.4-1.6,2.9-2.5,4.5c-1,1.6-1.9,3.3-2.9,5c-1.2,2-2.4,4.1-3.6,6.2c-1.2,2.1-2.3,4.1-3.2,6c-1,1.9-1.7,3.6-2.3,5.2
	c-0.6,1.6-0.9,2.9-0.9,4c0,0.6-0.4,0.8-1.3,0.7c-0.8-0.1-1.7-0.5-2.7-1.1c-1-0.6-1.9-1.4-2.7-2.4c-0.8-1-1.3-2-1.3-3.1
	c0-0.8,0.2-1.8,0.6-3c0.4-1.2,1-2.5,1.7-4c0.7-1.5,1.5-3,2.4-4.7c0.9-1.7,1.9-3.4,2.9-5.1c1.1-1.9,2.2-3.9,3.2-5.8
	c1.1-1.9,2-3.8,2.9-5.6s1.5-3.4,2-5C988.7,453.6,989,452.3,989,451.3z"/>
<path id="seguro" class="st1" d="M639.2,482.9c-0.3-0.4-0.7-0.7-1.2-1c-0.5-0.3-1-0.4-1.5-0.4c-0.5,0-0.9,0.2-1.1,0.6
	c-0.4,0.7-1,1.7-1.8,3c-0.8,1.3-1.8,2.7-3,4.1c-1.2,1.5-2.5,2.9-4,4.3c-1.5,1.4-3,2.6-4.7,3.5c2.7-5.4,4-11.1,4-17.1
	c0-1.1-0.1-2.2-0.4-3.2c-0.2-1-0.7-1.8-1.4-2.5c-0.7-0.7-1.5-1.2-2.7-1.6c-1.1-0.4-2.5-0.6-4.2-0.6c-1.2,0-2.3,0.2-3.5,0.6
	c-1.1,0.4-2.2,1-3.3,1.7c-1.1,0.7-2.1,1.5-3,2.5c-0.9,1-1.8,2-2.6,3.1c-0.5-0.1-1-0.2-1.6-0.3s-1-0.1-1.5-0.1
	c-0.6,0-1.5,0.6-2.7,1.8c-1.2,1.2-2.3,2.8-3.4,4.7s-2.1,4-2.9,6.3c-0.3,0.9-0.6,1.9-0.8,2.8c-0.4,0.6-0.7,1.3-1.1,1.9
	c-1.2,2-2.3,3.8-3.4,5.4c-1.1,1.6-2.2,3-3.2,4c-1,1-1.8,1.6-2.5,1.6c-0.2,0-0.3-0.2-0.3-0.7c0-0.6,0.1-1.3,0.4-2.2
	c0.2-0.9,0.6-1.8,0.9-2.7c0.4-1,0.8-1.9,1.2-3c0.5-1,0.9-2,1.3-2.9c0.6-1.3,1.2-2.5,1.6-3.6c0.5-1.1,0.7-1.9,0.7-2.4
	c0-0.9-0.2-1.5-0.7-1.9c-0.5-0.4-1.1-0.8-1.9-1.3c-0.4-0.2-0.7-0.5-1.2-0.7s-0.8-0.6-1.1-1s-0.6-0.9-0.8-1.4c-0.2-0.6-0.3-1.2-0.3-2
	c0-1,0.3-2.1,0.8-3.3c0.5-1.2,1.1-2.3,1.7-3.3c0.5-1,1-1.8,1.4-2.6c0.4-0.8,0.6-1.6,0.6-2.3c0-0.8-0.3-1.5-0.9-2.1
	c-0.6-0.6-1.3-1-2.1-1.4c-0.8-0.3-1.7-0.6-2.7-0.7c-1-0.2-1.8-0.2-2.4-0.2c-0.8,0-1.5,0.4-2.2,1.1c-0.7,0.7-1.4,1.6-2,2.8
	c-0.6,1.2-1.1,2.5-1.4,3.9c-0.4,1.5-0.5,2.9-0.5,4.4c0,0.8,0.1,1.5,0.2,2.2c0.1,0.6,0.2,1.1,0.4,1.6l-0.6,1.2
	c-0.5,1-1.1,2.3-1.9,3.8c-0.5,1.1-1.1,2.2-1.7,3.4v0c-0.1,0.1-0.1,0.2-0.1,0.3c-0.2,0.5-0.5,0.9-0.7,1.4c-0.9,1.8-1.9,3.5-2.9,5.3
	c-1,1.8-2.1,3.4-3.1,4.8s-2,2.6-2.9,3.5c-0.9,0.9-1.8,1.4-2.5,1.4c-0.1,0-0.1-0.2-0.1-0.5c0-0.8,0.2-1.9,0.7-3.3
	c0.5-1.4,1-2.9,1.7-4.5c0.7-1.6,1.4-3.3,2.2-5s1.6-3.4,2.4-5c1-2.2,1.9-4.1,2.7-5.7c0.7-1.7,1.1-2.8,1.1-3.4c0-1-0.5-1.9-1.4-2.9
	c-0.9-1-1.9-1.7-3-2.3c-1.1-0.6-2.1-0.9-3-1c-0.9-0.1-1.4,0.3-1.4,1c0,0.4-0.3,1.3-1,2.7c-0.6,1.4-1.4,3.1-2.2,5
	c-3.4,4.9-6.5,9.2-9.3,13c-1.2,1.6-2.4,3.2-3.6,4.8c-1.2,1.6-2.3,2.9-3.3,4.1c-1,1.2-1.9,2.2-2.6,2.9c-0.7,0.7-1.3,1.1-1.5,1.1
	c-0.1,0,0-0.4,0.3-1.3c0.4-0.8,0.9-1.9,1.6-3.3c0.7-1.4,1.5-2.9,2.4-4.6c0.9-1.7,1.8-3.5,2.7-5.2c0.8-1.5,1.5-2.9,2.2-4.4
	c0.7-1.4,1.4-2.7,1.9-3.9c0.5-1.2,1-2.3,1.3-3.3s0.5-1.7,0.5-2.2c0-1.4-0.5-2.5-1.5-3.5c-1-1-2.1-1.8-3.3-2.3
	c-1.2-0.5-2.3-0.8-3.3-0.7c-1,0-1.5,0.4-1.5,1.2c0,0.7-0.1,1.5-0.4,2.3s-0.6,1.8-1.1,2.9c-0.5,1-1,2.1-1.6,3.3
	c-0.5,1.1-1.1,2.1-1.7,3.2c-1,1.3-2,2.6-3.3,3.9c-2.5,2.7-5.4,5.4-8.7,8.1c0.6-1.7,1.2-3.2,1.6-4.7c0.4-1.4,0.6-2.5,0.6-3.1
	c0-0.8-0.2-1.7-0.7-2.7c-0.5-1-1.1-1.8-1.8-2.6c0.6-0.1,1.2-0.8,1.8-1.9c0.1-0.3,0.2-0.8,0.2-1.5c0-0.7,0-1.4-0.2-2.3
	c-0.2-0.8-0.5-1.7-0.9-2.6c-0.4-0.9-1-1.7-1.8-2.4c-0.8-0.7-1.7-1.4-2.9-1.8c-1.2-0.5-2.6-0.7-4.4-0.7c-2,0-4.1,0.4-6.1,1.2
	c-2,0.8-3.9,1.9-5.8,3.3c-1.8,1.4-3.5,3-5.1,4.8c-1.6,1.8-3,3.8-4.1,5.8c-1,1.8-1.8,3.7-2.5,5.6c-0.8,1-1.6,2.1-2.4,3.1
	c-1.6,1.9-3.2,3.7-5,5.3c-1.8,1.6-3.6,2.9-5.6,3.9c-1.9,1-3.9,1.5-5.9,1.5c-0.9,0-1.5-0.3-1.8-1c-0.4-0.7-0.5-1.5-0.5-2.5
	c0-0.9,0.1-1.7,0.3-2.6c1.5-0.3,3-0.9,4.6-1.9c1.6-0.9,3.1-2.1,4.7-3.4c1.5-1.3,3-2.8,4.3-4.4c1.4-1.6,2.6-3.2,3.6-4.8
	c1-1.6,1.9-3.2,2.5-4.7c0.6-1.5,0.9-2.9,0.9-4c0-1.6-0.5-2.9-1.4-3.8c-0.9-1-2.5-1.4-4.6-1.4c-3.3,0-6.5,0.8-9.6,2.3
	c-3.2,1.5-6,3.5-8.5,6s-4.5,5.2-6.1,8.3c-0.9,1.9-1.6,3.8-2,5.8c-0.2,0.3-0.4,0.6-0.6,0.9c-1.1,1.6-2.2,3-3.5,4.5c0-0.4,0-0.8,0-1.2
	c0-0.5,0-0.9,0-1.2c0-1.9-0.3-3.5-0.9-4.9c-0.6-1.4-1.2-2.8-2-4.1v0.1c-0.6-1.3-1.2-2.5-1.8-3.8c-0.6-1.3-0.8-2.7-0.8-4.3
	c0-1.4,0.4-2.5,1.1-3.5c0.7-1,1.4-1.8,2.1-2.4c0.6-0.6,1.2-1.3,1.6-1.9c0.5-0.6,0.7-1.3,0.7-2.1c0-0.9-0.2-1.6-0.7-2.2
	c-0.5-0.5-1.1-1-1.7-1.3c-0.7-0.3-1.4-0.5-2.1-0.6c-0.7-0.1-1.3-0.1-1.8-0.1c-0.9,0-1.9,0.3-3.1,1c-1.2,0.6-2.3,1.5-3.4,2.7
	c-1.1,1.2-2,2.6-2.8,4.2c-0.7,1.7-1.1,3.5-1.1,5.5c0,0.6,0.1,1.4,0.2,2.2l-0.5,1.2l0.1-0.1c-0.2,0.4-0.4,0.8-0.5,1.3
	c-0.2,0.4-0.4,0.9-0.7,1.5c-0.3,0.5-0.6,1.2-1,1.9c-0.4,0.7-0.9,1.6-1.4,2.6c-0.2,0.3-0.1,0.7,0.2,1c0.3,0.4,0.7,0.7,1.2,0.9
	c0.5,0.2,1,0.4,1.5,0.5c0.5,0.1,0.8-0.1,1-0.4c0.6-1,1.1-1.9,1.4-2.5c0.3-0.6,0.6-1.2,0.8-1.7l1.2,2.2l-0.1-0.1
	c0.6,1.2,1.2,2.3,1.8,3.5s0.8,2.4,0.8,3.7c0,1.4-0.2,2.7-0.7,3.9c-0.5,1.2-1,2.3-1.7,3.2c-0.7,0.9-1.4,1.6-2.2,2.1
	c-0.8,0.5-1.6,0.8-2.3,0.8c-0.6,0-1.1-0.1-1.4-0.2c-0.4-0.2-0.7-0.4-0.9-0.6c-0.2-0.2-0.4-0.5-0.5-0.8c-0.1-0.3-0.2-0.5-0.3-0.8
	c-0.2-0.6-0.5-1.1-0.7-1.5c-0.2-0.4-0.7-0.6-1.5-0.6c-0.4,0-0.6,0.5-0.7,1.6c-0.1,1,0.1,2.2,0.5,3.5c0.5,1.3,1.3,2.4,2.4,3.5
	c1.2,1,2.9,1.6,5,1.6h0.4c1.3,0,2.7-0.2,4.3-0.5c2.4-0.7,4.6-1.8,6.7-3.3c2.1-1.5,4-3.1,5.8-4.9c0.9-0.9,1.8-1.9,2.6-2.9
	c0.1,0.6,0.3,1.3,0.5,1.9c0.5,1.7,1.3,3.3,2.4,4.8c1.1,1.5,2.4,2.7,4.1,3.6s3.6,1.4,5.8,1.4c2.7,0,5.2-0.6,7.7-1.8
	c2.4-1.2,4.7-2.7,6.9-4.6c1.5-1.3,3-2.8,4.3-4.3c0.1,0.7,0.3,1.5,0.5,2.2c0.5,1.6,1.2,3,2.1,4.3c0.9,1.3,2,2.3,3.4,3.1
	c1.3,0.8,2.9,1.2,4.7,1.2c0.9,0,1.8-0.2,2.7-0.5c0.9-0.4,1.7-0.9,2.6-1.5l-0.3,0.7c-3.2,2.3-6.2,4.4-9.1,6.5
	c-2.9,2.1-5.4,4.1-7.6,5.9c-2.2,1.9-3.9,3.6-5.2,5.3c-1.3,1.7-1.9,3.2-1.9,4.6c0,0.7,0.2,1.5,0.5,2.3c0.3,0.9,0.9,1.7,1.7,2.5
	c0.8,0.8,1.9,1.4,3.2,2s3.1,0.8,5.2,0.8c1.5,0,3-0.5,4.6-1.5c1.6-1,3.2-2.4,4.9-4.1c1.7-1.7,3.3-3.7,4.9-6c1.6-2.3,3.2-4.7,4.8-7.3
	c1.5-2.6,3-5.2,4.4-7.9c1.4-2.7,2.6-5.3,3.8-7.8c2.5-2,4.9-4,7.3-6c1-0.8,1.9-1.6,2.8-2.5c-0.1,0.3-0.2,0.6-0.3,0.9
	c-0.4,1.4-0.5,2.7-0.5,3.9c0,0.9,0.2,1.8,0.6,2.9c0.4,1.1,1,2.1,1.7,3.1c0.7,1,1.5,1.8,2.5,2.4c1,0.7,1.9,1,3,1c0.7,0,1.5-0.3,2.5-1
	c1-0.7,2-1.6,3.1-2.7c1.1-1.1,2.3-2.4,3.5-3.9c1.2-1.5,2.4-3,3.6-4.6c-0.3,1.2-0.4,2.2-0.4,2.9c0,1,0.2,2,0.7,3c0.5,1.1,1,2.1,1.7,3
	c0.7,0.9,1.5,1.7,2.4,2.3c0.9,0.6,1.8,0.9,2.8,0.9c1.5,0,2.9-0.5,4.4-1.5c1.5-1,2.9-2.4,4.3-4c1.4-1.7,2.8-3.5,4.1-5.6
	c1.3-2.1,2.5-4.1,3.7-6.2c0.8-1.5,1.6-3,2.3-4.4c0.5-0.8,0.9-1.5,1.1-2.1c0.4-0.8,0.8-1.6,1.2-2.3c0.4,0.4,0.8,0.7,1.2,1
	c0.4,0.3,0.8,0.5,1.1,0.7c-1,2.1-1.9,4.1-2.7,6.1c-0.6,1.7-1.2,3.4-1.8,5.3c-0.5,1.8-0.8,3.4-0.8,4.7c0,1,0.2,2.1,0.6,3.1
	c0.4,1,1,1.9,1.7,2.7c0.7,0.8,1.6,1.4,2.7,1.9c1,0.5,2.2,0.7,3.5,0.7c1.3,0,2.7-0.6,4.2-1.8s3-2.7,4.5-4.6c0.9-1.1,1.7-2.2,2.5-3.4
	c0.2,0.7,0.3,1.3,0.6,1.9c0.7,1.7,1.6,3.2,2.7,4.3s2.4,2,3.8,2.6c1.4,0.6,2.9,0.9,4.4,0.9c2.8,0,5.4-0.9,8-2.7
	c2.6-1.8,4.9-4.1,6.9-7c1.9-0.3,3.7-0.9,5.4-1.7c1.7-0.9,3.2-1.9,4.7-3.1s2.7-2.5,3.9-3.9c1.2-1.4,2.3-2.7,3.2-4
	c0.9-1.3,1.7-2.5,2.3-3.6c0.6-1.1,1.1-1.9,1.4-2.6C639.6,483.7,639.5,483.3,639.2,482.9z M472.3,488.4c1.1-2.1,2.3-4,3.5-5.7
	c1.2-1.7,2.5-3.1,3.8-4.1c1.3-1.1,2.5-1.6,3.6-1.6c0.2,0,0.3,0.1,0.3,0.4c0,1-0.4,2.3-1.3,3.9c-0.8,1.6-1.9,3.3-3.3,5
	c-1.4,1.7-2.9,3.4-4.6,4.9c-1.7,1.5-3.3,2.7-5,3.5C470.3,492.6,471.2,490.5,472.3,488.4z M496.3,524.9c-1.4,2.1-2.8,3.9-4.2,5.5
	c-1.4,1.6-2.8,2.8-4.1,3.7c-1.4,0.9-2.7,1.4-3.9,1.4c-0.7,0-1-0.4-1-1.1c0-0.8,0.5-1.7,1.4-2.8c0.9-1.1,2.1-2.4,3.7-3.7
	c1.6-1.4,3.4-2.9,5.5-4.5s4.4-3.4,6.8-5.2C499.1,520.5,497.7,522.8,496.3,524.9z M518.6,482.5c-0.1,0.2-0.2,0.5-0.1,1
	c-0.8-0.5-1.6-0.8-2.3-0.8c-0.9,0-1.6,0.3-2.1,0.9c-0.5,0.6-0.8,1.6-0.8,3.1v0.3c-0.1,0.5-0.2,1-0.4,1.6c-0.2,0.6-0.3,1.3-0.5,1.9
	v-0.1c-0.5,1.6-1.3,3.4-2.2,5.4c-1,2-2,3.9-3.2,5.7c-1.2,1.8-2.4,3.3-3.7,4.6c-1.3,1.2-2.6,1.9-3.9,1.9c-0.5,0-0.8-0.2-1.1-0.6
	c-0.2-0.4-0.3-1-0.3-1.8c0-1.3,0.3-2.9,0.8-4.7c0.5-1.8,1.2-3.8,2.1-5.7c0.9-2,1.9-4,3-5.9c1.1-1.9,2.3-3.7,3.5-5.2
	c1.2-1.5,2.5-2.8,3.7-3.7c1.2-1,2.4-1.4,3.5-1.4c1,0,1.8,0.2,2.4,0.5c0.6,0.4,1,0.8,1.2,1.2c0.2,0.5,0.4,0.9,0.4,1.3
	C518.7,482.2,518.7,482.4,518.6,482.5z M608.3,506.3c-1.4,0.8-2.9,1.3-4.5,1.3c-0.9,0-1.5-0.2-1.9-0.6c-0.4-0.4-0.5-1-0.5-1.8
	c0-1,0.2-2.2,0.6-3.5c0.4-1.3,0.9-2.7,1.5-4.1c1.1,1.2,2.4,2.3,3.9,3.2c1.5,0.9,3.1,1.6,4.9,2.1C611,504.3,609.7,505.5,608.3,506.3z
	 M620.6,484.3c-0.3,1.5-0.7,3-1.2,4.6c-0.5,1.6-1.1,3.3-1.8,4.9c-0.7,1.7-1.5,3.3-2.4,4.8c-1.3-0.2-2.2-0.6-2.7-1.4
	c-0.5-0.7-0.7-1.6-0.7-2.7c0-1.6,0.4-3.4,1.1-5.4c0.7-1.9,1.6-3.8,2.5-5.5c1-1.7,1.9-3.2,2.9-4.3s1.7-1.7,2.1-1.7
	c0.5,0,0.7,0.9,0.7,2.7C621,481.6,620.9,482.9,620.6,484.3z"/>
<path id="azul" class="st0" d="M263,71c-90.2,0-163.3,73.1-163.3,163.3S172.8,397.7,263,397.7s163.3-73.1,163.3-163.3
	S353.3,71,263,71z M263,373.7c-18.8,0-37.1-3.7-54.2-10.9c-16.6-7-31.5-17.1-44.3-29.9s-22.9-27.7-29.9-44.3
	c-7.3-17.2-10.9-35.4-10.9-54.2s3.7-37.1,10.9-54.2c7-16.6,17.1-31.5,29.9-44.3c12.8-12.8,27.7-22.9,44.3-29.9
	c17.2-7.3,35.4-11,54.2-11s37.1,3.7,54.2,10.9c2.2,0.9,4.4,1.9,6.5,3L312.1,136l0.1,0.6L247,290.1c-0.1,1.1-0.2,2.9-0.3,5.2v6.9
	c0.4,11.6,2.7,26.6,12.7,27.2c0.2,0,0.3,0,0.5,0l0.6,0.2l0.1-0.1c2.7-0.1,4.1-1.8,4.1-1.8L263,324l0,0c-0.1-0.2-8.1-17.6,8.7-33.6
	c3.9-3.7,6-3.6,6.9-1.4l43.1-96.8L348,344.9c-9.4,7.2-19.7,13.2-30.7,17.9C300.1,370.1,281.9,373.7,263,373.7z M376.6,315.2
	l-32.9-172.4l0.2-0.4l-4.9-24.9c8.1,5.3,15.6,11.4,22.5,18.3c12.8,12.8,22.9,27.7,29.9,44.3c7.3,17.2,10.9,35.4,10.9,54.2
	s-3.7,37.1-10.9,54.2C387.5,298,382.5,306.9,376.6,315.2z M526,297.2c-11.1-3.8-17.9-12.9-17.9-12.9l-5.6,3.5
	c-8.3,5.3-17.4,10.1-32.8,10.1c-21.5,0-32.3-11.9-32.3-30.1c0-18.7,12.1-33.3,48.5-41.9l18.2-4.3c0.3-16.4-3.3-27.5-18.9-27.5
	c-19.7,0-41.4,17.2-41.4,17.2v-20.7c0,0,17.4-15.9,45-16.4c27-0.3,37.9,17.2,37.9,40.2c0,12.4-1.3,26-1.3,38.4
	c0,21.7,8.8,24,13.4,26L526,297.2z M495.5,274.2l7.6-4.8c0,0-0.5-7.1-0.5-14.7c0-11.9,0.5-18.4,0.5-18.4l-13.1,3.3
	c-19.2,4.8-29.3,11.9-29.3,25.3c0,10.6,5.8,16.4,14.1,16.4C482.3,281.3,488.6,278.5,495.5,274.2z M628.8,197.9c0,0-4-2.3-9.1-2.3
	c-14.1,0-30.8,9.6-30.8,37.9v60.6h-22.5v-117h21v19.2c7.1-14.1,19.7-22.2,33.3-22.2c4.8,0,8.1,0.8,8.1,0.8V197.9z M659.2,160.3
	c-8.1,0-14.7-6.8-14.7-14.7c0-7.8,6.6-14.7,14.7-14.7c8.1,0,14.7,6.8,14.7,14.7C673.8,153.5,667.2,160.3,659.2,160.3z M645.5,294.2
	v-117H668v117H645.5z M792.8,288.4c0,0-13.9,9.6-35.9,9.6c-34.9,0-59.6-26.5-60.1-62.1c-0.5-35.9,25.3-61.6,60.1-61.6
	c21.5,0,33.3,7.6,33.3,7.6v20.7c0,0-13.9-10.1-32.6-10.1c-20.5,0-37.9,15.9-37.6,43.5c0.5,27.8,18.2,44.7,38.1,44.7
	c18.4,0,34.6-12.6,34.6-12.6v20.3H792.8z M824.6,239.4c1,24.8,14.4,40.2,40.4,40.2c24.5,0,44-18.7,44-18.7v22.2
	c0,0-16.7,14.9-47.2,14.9c-34.9,0-59.1-24.8-59.1-62.9c0-38.7,25.3-60.9,60.1-60.9c33.9,0,53.1,24.5,53.1,62.7L824.6,239.4z
	 M825.9,221.9l65.2-1.5c-1.3-15.9-11.6-28.3-27.5-28.5C846.4,191.4,829.9,201.5,825.9,221.9z M944.1,294.2V108.8h22.5v185.4H944.1z
	 M1087.4,297.2c-11.1-3.8-17.9-12.9-17.9-12.9l-5.6,3.5c-8.3,5.3-17.4,10.1-32.8,10.1c-21.5,0-32.3-11.9-32.3-30.1
	c0-18.7,12.1-33.3,48.5-41.9l18.2-4.3c0.3-16.4-3.3-27.5-18.9-27.5c-19.7,0-41.4,17.2-41.4,17.2v-20.7c0,0,17.4-15.9,45-16.4
	c27-0.3,37.9,17.2,37.9,40.2c0,12.4-1.3,26-1.3,38.4c0,21.7,8.8,24,13.4,26L1087.4,297.2z M1056.8,274.2l7.6-4.8
	c0,0-0.5-7.1-0.5-14.7c0-11.9,0.5-18.4,0.5-18.4l-13.1,3.3c-19.2,4.8-29.3,11.9-29.3,25.3c0,10.6,5.8,16.4,14.1,16.4
	C1043.7,281.3,1050,278.5,1056.8,274.2z M509,368.7c-5.8-30-5.6-32.7-5.6-32.9c0,0-1,4.8-15.2,35.9h-0.6
	c-14.1-31.1-15.2-35.9-15.2-35.9s0.1,2.8-5.6,32.9h-7.1l10.3-52.5h0.4c16.6,36.8,17.4,40.6,17.5,41.2c0,0,1.1-4.3,17.5-41.2h0.4
	l10.3,52.5H509z M581.6,316.2l21.5,52.5h-7.7l-5.3-13.9h-18.6l-5.6,13.9h-7.1l22.1-52.5H581.6z M573.6,349.5h14.6l-0.7-1.7
	c-5.6-14.9-6.4-17.8-6.5-18c-0.1,0.1-0.5,2.6-6.7,18L573.6,349.5z M676.1,368.7l-7.5-10.9c-5.9-8.5-8.8-10.8-13.4-11v21.9h-6.7
	v-49.5c0,0,7.4-0.2,12.8-0.2c8.3,0,15.8,3,15.8,12.4c0,7.4-5.4,12.7-11.9,14c0,0,3.3,1,7.6,7l11.4,16.3L676.1,368.7L676.1,368.7z
	 M660,324.1c-2.5,0-4.9,0.1-4.9,0.1v17.6h1.3c6.2,0,13.7-2.2,13.7-9.9C670.1,326,666.1,324.1,660,324.1z M746.1,324.7v44h-7v-44
	h-16.6v-5.5h40.3v5.5H746.1z M823.3,307.2l-9.4,8.7h-5.3l6.9-8.7H823.3z M815.7,318.6v50.1h-6.5v-50.1H815.7z M907.1,371.6
	c-32.9-37.3-34-39.9-34-39.9s0.4,4.2,0.4,36.9H867v-52.5h0.7c33.1,38,34,40.4,34,40.4s-0.3-3.6-0.3-37.4h6.4v52.5H907.1z
	 M962.6,368.7v-49.5h25.2v5.5h-18.4v15.6h17.2v5.5h-17.2V363h19.2v5.6h-26V368.7z M1074.6,319.7c-28.4,41.8-30.1,43.6-30.1,43.6
	s3.3-0.3,28.3-0.3v5.6h-39.4v-0.5c28.9-42,30.6-43.8,30.6-43.8s-2.3,0.3-27.2,0.3v-5.5h37.8L1074.6,319.7L1074.6,319.7z"/>
<path id="rojo" class="st1" d="M279.2,290.4c0,0.7,0.1,2,0.1,3.8v7.2c-0.3,13.9-2.7,34.3-14.6,26.4l-1.8-4.1
	c-1-2.4-6.8-18.4,8.8-33.3c3.5-3.4,5.6-3.6,6.6-1.9L279.2,290.4z M263,252.4l-49.2-115.8l0.1-0.6l-11.7-27.1c0,0-0.1,0-0.1,0.1
	l-9.2-21.7l-10.8,55.1l0.2,0.4l-32.9,172.4c4.5,6.3,9.5,12.2,15,17.7c4.3,4.3,8.9,8.3,13.6,12l26.2-152.7l43.2,96.9L263,252.4z"/>
<path id="linea" class="st2" d="M901.5,319.2h6.4v52.5h-0.7c-32.9-37.3-34-39.9-34-39.9s0.4,4.2,0.4,36.9H867v-52.5h0.7
	c33.1,38,34,40.4,34,40.4S901.5,353.1,901.5,319.2z M808.5,315.9h5.3l9.4-8.7h-7.9L808.5,315.9z M915.8,236.9l-91.2,2.5
	c1,24.8,14.4,40.2,40.4,40.2c24.5,0,44-18.7,44-18.7v22.2c0,0-16.7,14.9-47.2,14.9c-34.9,0-59.1-24.8-59.1-62.9
	c0-38.7,25.3-60.9,60.1-60.9C896.6,174.2,915.8,198.7,915.8,236.9z M891.1,220.4c-1.3-15.9-11.6-28.3-27.5-28.5
	c-17.2-0.5-33.6,9.6-37.6,30.1L891.1,220.4z M809.2,368.7h6.5v-50.1h-6.5V368.7z M1036.8,324.7c24.9,0,27.2-0.3,27.2-0.3
	s-1.7,1.8-30.6,43.8v0.5h39.4V363c-25,0-28.3,0.3-28.3,0.3s1.7-1.8,30.1-43.6v-0.5h-37.8L1036.8,324.7L1036.8,324.7z M1100,278.8
	l-12.6,18.4c-11.1-3.8-17.9-12.9-17.9-12.9l-5.6,3.5c-8.3,5.3-17.4,10.1-32.8,10.1c-21.5,0-32.3-11.9-32.3-30.1
	c0-18.7,12.1-33.3,48.5-41.9l18.2-4.3c0.3-16.4-3.3-27.5-18.9-27.5c-19.7,0-41.4,17.2-41.4,17.2v-20.7c0,0,17.4-15.9,45-16.4
	c27-0.3,37.9,17.2,37.9,40.2c0,12.4-1.3,26-1.3,38.4C1086.6,274.5,1095.5,276.8,1100,278.8z M1063.9,254.8c0-11.9,0.5-18.4,0.5-18.4
	l-13.1,3.3c-19.2,4.8-29.3,11.9-29.3,25.3c0,10.6,5.8,16.4,14.1,16.4c7.6,0,13.9-2.8,20.7-7.1l7.6-4.8
	C1064.4,269.4,1063.9,262.4,1063.9,254.8z M969.5,345.8h17.2v-5.5h-17.2v-15.6h18.4v-5.5h-25.2v49.5h26.1V363h-19.2L969.5,345.8
	L969.5,345.8z M966.6,108.8h-22.5v185.4h22.5V108.8z M587.4,196.4v-19.2h-21v117h22.5v-60.6c0-28.3,16.7-37.9,30.8-37.9
	c5.1,0,9.1,2.3,9.1,2.3v-23c0,0-3.3-0.8-8.1-0.8C607.1,174.2,594.5,182.3,587.4,196.4z M720.1,235.8c-0.3-27.5,17.2-43.5,37.6-43.5
	c18.7,0,32.6,10.1,32.6,10.1v-20.7c0,0-11.9-7.6-33.3-7.6c-34.9,0-60.6,25.8-60.1,61.6c0.5,35.6,25.3,62.1,60.1,62.1
	c22,0,35.9-9.6,35.9-9.6v-20.5c0,0-16.2,12.6-34.6,12.6C738.2,280.6,720.6,263.6,720.1,235.8z M581.6,316.2l21.5,52.5h-7.7
	l-5.3-13.9h-18.6l-5.6,13.9h-7.1l22.1-52.5H581.6z M587.5,347.8c-5.6-14.9-6.4-17.8-6.5-18c-0.1,0.1-0.5,2.6-6.7,18l-0.7,1.7h14.6
	L587.5,347.8z M505.4,316.2c-16.4,36.8-17.5,41.2-17.5,41.2c-0.1-0.6-1-4.3-17.5-41.2H470l-10.3,52.5h7.1
	c5.6-30.1,5.6-32.9,5.6-32.9s1.1,4.8,15.2,35.9h0.6c14.2-31.1,15.2-35.9,15.2-35.9c0,0.2-0.2,2.9,5.6,32.9h7.1l-10.3-52.5H505.4z
	 M538.7,278.8L526,297.2c-11.1-3.8-17.9-12.9-17.9-12.9l-5.6,3.5c-8.3,5.3-17.4,10.1-32.8,10.1c-21.5,0-32.3-11.9-32.3-30.1
	c0-18.7,12.1-33.3,48.5-41.9l18.2-4.3c0.3-16.4-3.3-27.5-18.9-27.5c-19.7,0-41.4,17.2-41.4,17.2v-20.7c0,0,17.4-15.9,45-16.4
	c27-0.3,37.9,17.2,37.9,40.2c0,12.4-1.3,26-1.3,38.4C525.3,274.5,534.1,276.8,538.7,278.8z M502.5,254.8c0-11.9,0.5-18.4,0.5-18.4
	l-13.1,3.3c-19.2,4.8-29.3,11.9-29.3,25.3c0,10.6,5.8,16.4,14.1,16.4c7.6,0,13.9-2.8,20.7-7.1l7.6-4.8
	C503,269.4,502.5,262.4,502.5,254.8z M659.2,160.3c8.1,0,14.7-6.8,14.7-14.7c0-7.8-6.6-14.7-14.7-14.7c-8.1,0-14.7,6.8-14.7,14.7
	S651.1,160.3,659.2,160.3z M722.6,324.7h16.6v44h7v-44H763v-5.5h-40.3L722.6,324.7L722.6,324.7z M672.7,352.3l11.4,16.3h-8
	l-7.5-10.9c-5.9-8.5-8.8-10.8-13.4-11v21.9h-6.7v-49.5c0,0,7.4-0.2,12.8-0.2c8.3,0,15.8,3,15.8,12.4c0,7.4-5.4,12.7-11.9,14
	C665.1,345.3,668.4,346.3,672.7,352.3z M670.1,331.9c0-5.9-4-7.8-10.1-7.8c-2.5,0-4.9,0.1-4.9,0.1v17.6h1.3
	C662.6,341.8,670.1,339.6,670.1,331.9z M668,177.2h-22.5v117H668V177.2z M426.4,234.4c0,90.2-73.1,163.3-163.3,163.3
	S99.7,324.6,99.7,234.4S172.8,71,263,71S426.4,144.2,426.4,234.4z M202.3,108.9L214,136l-0.1,0.6L263,252.4l49.2-115.8l-0.1-0.6
	l11.7-27.1c-2.1-1-4.3-2-6.5-3C300.1,98.7,281.9,95,263,95s-37.1,3.7-54.2,10.9C206.6,106.9,204.4,107.9,202.3,108.9z M149.5,315
	l32.8-172.2l-0.2-0.4l4.9-24.9c-8.1,5.3-15.6,11.4-22.5,18.3c-12.8,12.8-22.9,27.7-29.9,44.3c-7.3,17.2-10.9,35.4-10.9,54.2
	s3.7,37.1,10.9,54.2c4,9.4,8.9,18.2,14.7,26.4h0.2V315z M348,344.9l-26.2-152.7L278.6,289v0.1l0.6,1.3c0,0.7,0.1,2,0.1,3.8v7.2
	c-0.3,13.9-2.7,34.3-14.6,26.4v-0.1h-0.1c-0.2,0.2-1.5,1.6-3.8,1.7c-0.2,0-0.5,0-0.8,0l0,0c-0.2,0-0.3,0-0.5,0
	c-9.9-0.5-12.3-15.6-12.7-27.2v-6.9c0.1-2.3,0.2-4.1,0.3-5.2l0.4-1l-43.2-96.9l-26.2,152.7c9.4,7.2,19.7,13.3,30.7,17.9
	c17.2,7.3,35.4,10.9,54.2,10.9s37.1-3.7,54.2-10.9C328.3,358.1,338.6,352.1,348,344.9z M391.5,288.6c7.3-17.2,10.9-35.4,10.9-54.2
	s-3.7-37.1-10.9-54.2c-7-16.6-17.1-31.5-29.9-44.3c-6.9-6.9-14.5-13-22.5-18.3l4.9,24.9l-0.2,0.4l32.9,172.4
	C382.5,306.9,387.5,298,391.5,288.6z"/>
</svg>
